<?xml version="1.0" encoding="utf-8"?><!-- Uploaded to: SVG Repo, www.svgrepo.com, Generator: SVG Repo Mixer Tools -->
<svg fill="#000000" width="24" height="24" viewBox="0 -3 46 46" xmlns="http://www.w3.org/2000/svg">
  <path id="_29.Mac" data-name="29.Mac" d="M43,35H29.195a11.476,11.476,0,0,0,4.4,7H36a1,1,0,0,1,0,2H12a1,1,0,0,1,0-2h2.4a11.476,11.476,0,0,0,4.4-7H5a4,4,0,0,1-4-4V8A4,4,0,0,1,5,4H43a4,4,0,0,1,4,4V31A4,4,0,0,1,43,35ZM17.4,42H30.6a12.747,12.747,0,0,1-3.459-7H20.856A12.747,12.747,0,0,1,17.4,42ZM45,8a2,2,0,0,0-2-2H5A2,2,0,0,0,3,8V27H45Zm0,21H3v2a2,2,0,0,0,2,2H43a2,2,0,0,0,2-2ZM24,32a1,1,0,1,1,1-1A1,1,0,0,1,24,32Z" transform="translate(-1 -4)" fill-rule="evenodd"/>
</svg>